<svg id="Группа_2" data-name="Группа 2" xmlns="http://www.w3.org/2000/svg" width="75.5" height="28" viewBox="0 0 75.5 28">
  <metadata><?xpacket begin="﻿" id="W5M0MpCehiHzreSzNTczkc9d"?>
<x:xmpmeta xmlns:x="adobe:ns:meta/" x:xmptk="Adobe XMP Core 5.6-c142 79.160924, 2017/07/13-01:06:39        ">
   <rdf:RDF xmlns:rdf="http://www.w3.org/1999/02/22-rdf-syntax-ns#">
      <rdf:Description rdf:about=""/>
   </rdf:RDF>
</x:xmpmeta>
                                                                                                    
                                                                                                    
                                                                                                    
                                                                                                    
                                                                                                    
                                                                                                    
                                                                                                    
                                                                                                    
                                                                                                    
                                                                                                    
                                                                                                    
                                                                                                    
                                                                                                    
                                                                                                    
                                                                                                    
                                                                                                    
                                                                                                    
                                                                                                    
                                                                                                    
                                                                                                    
                           
<?xpacket end="w"?></metadata>
<defs>
    <style>
      .cls-1 {
        fill: #fff;
        fill-rule: evenodd;
      }

      .cls-2 {
        fill: #999;
        opacity: 0.5;
      }
    </style>
  </defs>
  <path id="Прямоугольник_904_копия_6" data-name="Прямоугольник 904 копия 6" class="cls-1" d="M1340.99,3249.66l-1.43,1.33-7.13-6.66h0L1331,3243l8.56-7.99,1.43,1.33-7.13,6.66Z" transform="translate(-1331 -3235)"/>
  <path id="Назад" class="cls-1" d="M1369.88,3235.11h-0.99v5.71h-7.87v-5.71h-0.99v12.6h0.99v-5.96h7.87v5.96h0.99v-12.6Zm6.12,5.22a3.114,3.114,0,0,1,1.36.32,1.354,1.354,0,0,1,.58.92,7.9,7.9,0,0,1,.18,1.93,3.576,3.576,0,0,0-2.19-.61,3.511,3.511,0,0,0-2.22.66,2.23,2.23,0,0,0-.86,1.86,2.335,2.335,0,0,0,.68,1.75,2.512,2.512,0,0,0,1.82.66,3.234,3.234,0,0,0,2.77-1.35v1.24h0.94v-5.02a3.6,3.6,0,0,0-.71-2.45,2.953,2.953,0,0,0-2.3-.79,4.762,4.762,0,0,0-2.57.74l0.25,0.77a4.789,4.789,0,0,1,2.27-.63h0Zm-1.66,6.17a1.552,1.552,0,0,1,.13-2.39,2.584,2.584,0,0,1,1.55-.45,3.472,3.472,0,0,1,2.1.65v1.35a2.992,2.992,0,0,1-2.48,1.28A1.93,1.93,0,0,1,1374.34,3246.5Zm12.51,0.72a2.05,2.05,0,0,0,.92-1.76,1.887,1.887,0,0,0-.47-1.3,1.841,1.841,0,0,0-1.29-.61v-0.03a1.944,1.944,0,0,0,1.45-1.95,1.806,1.806,0,0,0-.76-1.55,3.546,3.546,0,0,0-2.15-.57,4.014,4.014,0,0,0-3.04,1.06l0.37,0.72a3.946,3.946,0,0,1,2.54-.9,2.7,2.7,0,0,1,1.51.36,1.177,1.177,0,0,1,.54,1.04,1.367,1.367,0,0,1-.48,1.05,1.71,1.71,0,0,1-1.17.43h-1.28v0.77h1.37a2.34,2.34,0,0,1,1.37.36,1.162,1.162,0,0,1,.5.99,1.389,1.389,0,0,1-.68,1.21,3.293,3.293,0,0,1-1.82.45,4.313,4.313,0,0,1-1.38-.24,3.242,3.242,0,0,1-1.18-.68l-0.48.72a2.693,2.693,0,0,0,1.35.78,6.451,6.451,0,0,0,1.83.3A4.065,4.065,0,0,0,1386.85,3247.22Zm6.01-6.89a3.039,3.039,0,0,1,1.36.32,1.364,1.364,0,0,1,.59.92,7.9,7.9,0,0,1,.18,1.93,3.608,3.608,0,0,0-2.2-.61,3.482,3.482,0,0,0-2.21.66,2.211,2.211,0,0,0-.87,1.86,2.3,2.3,0,0,0,.69,1.75,2.5,2.5,0,0,0,1.82.66,3.246,3.246,0,0,0,2.77-1.35v1.24h0.93v-5.02a3.551,3.551,0,0,0-.71-2.45,2.929,2.929,0,0,0-2.29-.79,4.82,4.82,0,0,0-2.58.74l0.26,0.77a4.752,4.752,0,0,1,2.26-.63h0Zm-1.65,6.17a1.419,1.419,0,0,1-.51-1.15,1.437,1.437,0,0,1,.63-1.24,2.6,2.6,0,0,1,1.55-.45,3.481,3.481,0,0,1,2.11.65v1.35a3.01,3.01,0,0,1-2.49,1.28A1.9,1.9,0,0,1,1391.21,3246.5Zm7.22,1.21h7.2v2.05h0.88v-2.93h-1.35v-7.22h-5.17l-0.12,2.29a15.189,15.189,0,0,1-.48,3,5.808,5.808,0,0,1-.84,1.93h-1.01v2.93h0.89v-2.05Zm5.79-7.22v6.34h-4.68a5.655,5.655,0,0,0,.72-1.69,15.247,15.247,0,0,0,.51-2.88l0.1-1.77h3.35Z" transform="translate(-1331 -3235)"/>
  <rect id="Прямоугольник_2364" data-name="Прямоугольник 2364" class="cls-2" x="28" y="26" width="35" height="2"/>
</svg>
