<svg id="Группа_2" data-name="Группа 2" xmlns="http://www.w3.org/2000/svg" width="126" height="28.06" viewBox="0 0 126 28.06">
  <metadata><?xpacket begin="﻿" id="W5M0MpCehiHzreSzNTczkc9d"?>
<x:xmpmeta xmlns:x="adobe:ns:meta/" x:xmptk="Adobe XMP Core 5.6-c142 79.160924, 2017/07/13-01:06:39        ">
   <rdf:RDF xmlns:rdf="http://www.w3.org/1999/02/22-rdf-syntax-ns#">
      <rdf:Description rdf:about=""/>
   </rdf:RDF>
</x:xmpmeta>
                                                                                                    
                                                                                                    
                                                                                                    
                                                                                                    
                                                                                                    
                                                                                                    
                                                                                                    
                                                                                                    
                                                                                                    
                                                                                                    
                                                                                                    
                                                                                                    
                                                                                                    
                                                                                                    
                                                                                                    
                                                                                                    
                                                                                                    
                                                                                                    
                                                                                                    
                                                                                                    
                           
<?xpacket end="w"?></metadata>
<defs>
    <style>
      .cls-1 {
        fill: #fff;
        fill-rule: evenodd;
      }

      .cls-2 {
        fill: #999;
        opacity: 0.5;
      }
    </style>
  </defs>
  <path id="Прямоугольник_904_копия_6" data-name="Прямоугольник 904 копия 6" class="cls-1" d="M1485,3243l-8.56,7.99-1.43-1.33,7.13-6.66-7.13-6.66,1.43-1.33,7.13,6.66h0Z" transform="translate(-1359 -3234.94)"/>
  <path id="Следующий" class="cls-1" d="M1365.4,3246.94a5.121,5.121,0,0,1-3.87-1.53,5.508,5.508,0,0,1-1.48-4,5.575,5.575,0,0,1,1.42-3.96,4.817,4.817,0,0,1,3.73-1.57,5.277,5.277,0,0,1,3.33.99l0.47-.73a5.728,5.728,0,0,0-3.82-1.19,5.793,5.793,0,0,0-4.48,1.85,6.49,6.49,0,0,0-1.69,4.61,6.372,6.372,0,0,0,1.74,4.7,6.211,6.211,0,0,0,4.57,1.76,6.532,6.532,0,0,0,2.21-.37,4.372,4.372,0,0,0,1.7-1.01l-0.4-.74a5.263,5.263,0,0,1-3.43,1.19h0Zm12.42-7.33h-5.24l-0.13,2.52c-0.14,2.26-.54,3.69-1.2,4.3a1.216,1.216,0,0,1-.89.43l0.08,0.92a2.184,2.184,0,0,0,1.78-.93c0.6-.75.98-2.26,1.13-4.54l0.11-1.76h3.42v7.16h0.94v-8.1Zm6.8,7.38a3.325,3.325,0,0,1-2.36-.84,3.1,3.1,0,0,1-.95-2.29h6.68a5.581,5.581,0,0,0,.05-0.76,3.486,3.486,0,0,0-1.04-2.64,3.653,3.653,0,0,0-2.63-1.01,3.9,3.9,0,0,0-3.03,1.19,4.316,4.316,0,0,0-1.08,3.02,4.082,4.082,0,0,0,1.19,3.06,4.244,4.244,0,0,0,3.12,1.15,3.9,3.9,0,0,0,2.98-1.15l-0.3-.72a3.453,3.453,0,0,1-2.63.99h0Zm1.69-5.92a2.742,2.742,0,0,1,.78,2.01h-5.84a3.108,3.108,0,0,1,.93-1.99,2.914,2.914,0,0,1,2.1-.76A2.783,2.783,0,0,1,1386.31,3241.07Zm3.42,6.64h7.2v2.05h0.88v-2.93h-1.35v-7.22h-5.16l-0.13,2.29a15.22,15.22,0,0,1-.47,3,5.808,5.808,0,0,1-.84,1.93h-1.01v2.93h0.88v-2.05Zm5.8-7.22v6.34h-4.68a5.655,5.655,0,0,0,.72-1.69,14.532,14.532,0,0,0,.5-2.88l0.11-1.77h3.35Zm7.94,4.81c-0.29.81-.44,1.25-0.45,1.29l-0.58-1.26-2.77-5.72h-1.12l4,8.1-0.18.43a6.659,6.659,0,0,1-1.01,1.78,1.466,1.466,0,0,1-1.1.53,2.269,2.269,0,0,1-.95-0.27l-0.31.72a2.834,2.834,0,0,0,1.39.41,1.931,1.931,0,0,0,1.51-.76,10.425,10.425,0,0,0,1.53-2.84l3.28-8.1h-1.07Zm6.08-1.26h2.03a4.139,4.139,0,0,0,1.25,2.77,4.292,4.292,0,0,0,5.79-.13,4.54,4.54,0,0,0,0-6.04,4.287,4.287,0,0,0-5.74-.17,4.052,4.052,0,0,0-1.28,2.63h-2.05v-3.49h-0.99v8.1h0.99v-3.67Zm6.14-3.66a2.839,2.839,0,0,1,2.19.92,3.288,3.288,0,0,1,.85,2.36,3.4,3.4,0,0,1-.85,2.38,2.858,2.858,0,0,1-2.19.9,2.954,2.954,0,0,1-2.22-.9,3.444,3.444,0,0,1-.84-2.38,3.325,3.325,0,0,1,.84-2.36A2.934,2.934,0,0,1,1415.69,3240.38Zm16.85,9.38h0.88v-2.93h-1.35v-7.22h-0.94v7.22h-3.51v-7.22h-0.93v7.22h-3.51v-7.22h-0.94v8.1h10.3v2.05Zm9.12-2.05h0.94v-8.1h-0.94l-5.4,6.75v-6.75h-0.93v8.1h0.93l5.4-6.75v6.75Zm10.3,0h0.93v-8.1h-0.93l-5.4,6.75v-6.75h-0.94v8.1h0.94l5.4-6.75v6.75Zm-4.41-10.65a2.553,2.553,0,0,0,1.83.64,2.492,2.492,0,0,0,1.77-.65,2.217,2.217,0,0,0,.68-1.65h-0.84a1.555,1.555,0,0,1-1.61,1.58,1.62,1.62,0,0,1-1.2-.46,1.51,1.51,0,0,1-.47-1.12h-0.85A2.151,2.151,0,0,0,1447.55,3237.06Z" transform="translate(-1359 -3234.94)"/>
  <rect id="Прямоугольник_2364" data-name="Прямоугольник 2364" class="cls-2" y="26.06" width="35" height="2"/>
</svg>
